<?xml version="1.0" standalone="no"?>
<!DOCTYPE svg PUBLIC "-//W3C//DTD SVG 20010904//EN"
 "http://www.w3.org/TR/2001/REC-SVG-20010904/DTD/svg10.dtd">
<svg version="1.0" xmlns="http://www.w3.org/2000/svg"
 width="1280.000000pt" height="1280.000000pt" viewBox="0 0 1280.000000 1280.000000"
 preserveAspectRatio="xMidYMid meet">
<metadata>
Created by potrace 1.15, written by Peter Selinger 2001-2017
</metadata>
<g transform="translate(0.000000,1280.000000) scale(0.100000,-0.100000)"
fill="#000000" stroke="none">
<path d="M5153 12269 c-17 -5 -43 -24 -58 -41 -24 -29 -27 -38 -23 -90 8 -106
127 -301 211 -344 16 -9 57 -25 91 -36 75 -24 173 -77 216 -118 34 -32 36 -46
14 -158 -14 -72 42 -109 218 -142 109 -21 174 -52 207 -99 41 -57 40 -57 -176
-64 -109 -3 -229 -11 -267 -18 l-68 -11 -107 51 c-134 63 -322 126 -426 142
l-80 12 -35 61 c-38 65 -70 85 -70 43 0 -13 11 -41 25 -61 13 -20 21 -36 16
-36 -37 0 -206 37 -296 65 -211 64 -213 65 -225 50 -15 -19 11 -42 63 -55 136
-33 247 -65 247 -71 0 -3 -15 -10 -32 -15 -23 -7 -33 -16 -33 -29 0 -24 12
-23 107 6 65 21 69 21 190 4 68 -9 124 -18 125 -19 5 -5 -300 -107 -479 -161
-102 -31 -214 -67 -247 -80 -33 -14 -77 -25 -96 -25 -40 0 -60 -26 -31 -42 14
-8 6 -22 -58 -96 -116 -136 -128 -145 -183 -146 -53 -1 -66 -22 -25 -42 22
-11 22 -12 -19 -40 -46 -32 -112 -112 -103 -125 10 -16 28 -9 61 23 30 29 33
30 33 11 0 -12 7 -28 15 -37 20 -20 20 -21 -19 -40 -40 -19 -182 -22 -254 -5
-95 22 -243 104 -387 215 -231 176 -513 353 -703 440 -167 77 -449 180 -460
169 -4 -4 9 -19 28 -34 69 -53 199 -167 375 -330 255 -237 260 -241 365 -320
109 -82 267 -164 355 -186 101 -24 343 -48 440 -42 l90 5 -98 -49 c-96 -47
-191 -106 -329 -205 -66 -46 -68 -47 -107 -35 -55 16 -175 99 -240 164 -52 54
-53 56 -42 88 10 29 9 37 -7 58 -50 67 -129 29 -108 -53 5 -22 50 -51 65 -42
4 3 24 -15 45 -39 l37 -45 -46 0 c-32 0 -51 6 -65 20 -24 24 -57 26 -88 4 -29
-20 -30 -72 -2 -102 39 -42 110 -18 110 36 0 20 5 22 54 22 49 0 62 -5 125
-49 39 -27 96 -59 125 -71 l54 -21 -50 -47 c-48 -45 -54 -47 -122 -53 -110 -9
-301 8 -353 31 -46 20 -173 134 -173 155 0 7 9 20 19 29 42 38 33 108 -16 127
-79 30 -149 -63 -90 -119 13 -12 28 -22 35 -22 6 0 14 -5 17 -10 4 -7 -8 -8
-37 -4 -30 5 -50 16 -69 37 -20 25 -30 29 -52 23 -53 -13 -61 -86 -11 -108 21
-10 29 -8 56 12 30 22 35 23 87 12 42 -9 61 -19 80 -43 13 -17 42 -44 64 -60
29 -21 35 -29 21 -29 -35 0 -183 39 -324 85 -129 42 -142 49 -178 90 -61 69
-83 177 -42 203 42 26 12 102 -40 102 -51 0 -69 -73 -26 -107 17 -14 24 -32
28 -71 3 -35 16 -69 37 -103 21 -34 26 -49 16 -45 -16 6 -117 35 -192 55 -26
7 -62 30 -94 59 l-51 47 18 31 c23 40 13 79 -29 104 -43 27 -73 25 -102 -5
-52 -51 -14 -140 60 -138 31 1 44 -6 83 -43 42 -41 44 -44 21 -44 -111 1 -299
91 -299 143 0 40 -28 68 -63 65 -26 -2 -33 -8 -35 -28 -3 -30 32 -73 56 -67
10 2 38 -12 63 -30 26 -18 66 -41 89 -52 l43 -19 -95 -7 c-84 -6 -101 -5 -142
13 -42 19 -46 24 -46 56 0 57 -60 93 -111 66 -14 -8 -19 -21 -19 -49 0 -59 55
-99 99 -72 8 5 28 2 52 -8 43 -18 50 -31 18 -31 -12 0 -62 -9 -111 -21 -82
-19 -91 -20 -107 -5 -9 9 -31 19 -49 22 -26 5 -36 1 -62 -24 -35 -36 -38 -60
-9 -96 28 -36 77 -36 113 0 14 15 26 35 26 45 0 20 29 27 225 59 148 25 158
25 120 1 -16 -10 -52 -42 -80 -72 -27 -30 -54 -52 -59 -51 -19 6 -56 -9 -76
-30 -41 -45 -13 -128 43 -128 50 0 82 56 66 115 -7 25 -3 36 26 74 19 24 44
50 56 59 18 13 23 12 44 -8 19 -18 22 -26 13 -40 -15 -23 -2 -67 22 -80 38
-20 90 12 90 55 0 33 -26 55 -64 55 -29 0 -66 24 -66 43 0 17 80 29 154 24
108 -8 226 -28 226 -38 0 -5 -7 -9 -15 -9 -47 0 -138 -74 -196 -157 -22 -31
-34 -40 -49 -36 -34 9 -70 -23 -70 -61 0 -40 26 -66 67 -66 51 0 78 48 59 105
-5 14 3 33 25 63 l32 44 12 -35 c7 -19 24 -55 38 -80 20 -34 25 -53 21 -79 -5
-29 -2 -38 17 -52 28 -19 70 -21 87 -4 33 33 0 98 -49 98 -19 0 -32 12 -58 54
-18 30 -35 73 -38 94 -5 39 -4 41 40 67 74 43 138 44 246 5 l91 -32 -70 -34
c-66 -31 -89 -54 -55 -54 11 0 12 -5 5 -26 -6 -14 -10 -33 -10 -41 0 -27 14
-4 25 40 9 39 15 45 77 75 l67 32 43 -16 c24 -10 45 -18 47 -20 2 -2 -14 -17
-34 -35 -49 -43 -79 -92 -104 -170 -29 -86 -45 -109 -79 -109 -43 0 -72 -26
-72 -64 0 -62 75 -100 113 -58 18 20 23 87 8 97 -9 5 18 65 29 65 3 0 18 -24
32 -53 19 -40 23 -58 16 -71 -12 -22 7 -73 33 -86 45 -25 99 2 99 49 0 35 -45
73 -81 69 -30 -3 -33 0 -61 63 -27 60 -28 69 -16 98 l13 31 50 -36 c28 -20 74
-47 103 -61 28 -13 52 -30 52 -37 0 -21 45 -56 72 -56 57 0 78 73 32 109 -34
27 -62 27 -90 0 l-22 -20 -48 25 c-27 13 -70 42 -96 64 l-47 40 29 43 c16 24
46 55 65 68 40 27 26 28 168 -10 l37 -10 -32 -39 c-17 -22 -28 -43 -24 -47 6
-7 18 6 30 32 5 10 38 -23 56 -54 5 -9 12 -13 16 -9 4 4 -6 26 -21 48 -41 59
-28 67 78 52 45 -6 112 -14 149 -18 l67 -7 -50 -48 c-45 -44 -119 -172 -119
-206 0 -6 -12 -18 -27 -25 -37 -18 -44 -77 -14 -107 60 -60 134 24 81 91 -19
24 -19 28 -4 73 9 25 20 43 23 38 4 -4 24 -31 44 -60 l36 -52 -61 -105 c-56
-98 -62 -105 -78 -91 -19 17 -60 20 -60 5 0 -6 11 -22 25 -35 l24 -25 -37 -16
c-20 -8 -77 -27 -127 -41 -142 -39 -211 -61 -350 -113 -167 -62 -233 -74 -545
-100 -140 -11 -308 -30 -373 -40 -133 -22 -218 -53 -199 -72 9 -9 31 -8 95 5
105 22 101 22 80 -13 -13 -22 -14 -33 -6 -41 12 -12 39 11 84 68 18 22 22 23
324 48 99 8 215 20 258 26 43 6 80 9 83 6 3 -3 0 -15 -6 -27 -9 -16 -9 -25 -1
-33 12 -12 67 33 76 64 3 10 16 21 28 25 12 3 79 28 150 55 126 49 428 141
436 134 8 -9 -36 -63 -149 -184 l-117 -126 -62 -1 c-96 -1 -111 -41 -21 -53
l40 -6 -85 -105 c-46 -58 -113 -142 -147 -187 -43 -57 -70 -83 -84 -83 -33 0
-68 -45 -69 -88 -1 -28 -13 -55 -49 -105 -26 -37 -50 -67 -53 -67 -3 0 -18 11
-35 25 -37 31 -71 32 -98 3 -18 -19 -21 -32 -17 -71 4 -43 2 -48 -19 -53 -13
-4 -24 -12 -24 -20 0 -10 -11 -8 -45 7 -52 23 -87 18 -115 -18 -45 -57 -17
-99 91 -133 82 -27 81 -30 -13 -114 l-63 -56 -8 32 c-25 96 -60 131 -124 126
-31 -2 -39 -8 -47 -30 -18 -51 15 -97 108 -153 14 -8 7 -17 -43 -57 -33 -27
-63 -48 -66 -48 -3 0 -3 16 1 35 22 118 -77 213 -146 141 -45 -49 -25 -107 58
-166 l53 -39 -68 -50 c-37 -28 -74 -50 -80 -51 -8 0 -13 12 -13 28 0 109 -83
198 -146 157 -19 -12 -24 -24 -24 -55 0 -50 42 -101 105 -127 25 -10 43 -22
42 -28 -2 -5 -33 -29 -70 -52 l-67 -43 0 51 c0 53 -10 80 -43 117 -48 52 -104
8 -94 -76 4 -39 12 -53 47 -84 l41 -37 -40 -20 c-54 -28 -61 -27 -61 14 0 40
-22 100 -48 128 -64 71 -154 9 -116 -81 19 -46 47 -77 85 -92 16 -7 29 -16 29
-21 0 -18 -43 -8 -83 20 -72 49 -124 71 -169 71 -101 0 -188 -120 -129 -179
45 -45 148 -34 298 32 43 19 79 34 80 33 1 -1 -5 -22 -13 -46 -40 -114 30
-202 110 -139 40 32 37 93 -9 153 -19 26 -35 48 -35 50 0 5 89 56 97 56 2 0 1
-5 -2 -11 -12 -19 5 -78 31 -109 18 -21 35 -30 55 -30 34 0 79 39 79 67 0 33
-38 81 -74 94 -20 7 -36 15 -36 19 0 3 31 24 68 47 l67 42 6 -35 c8 -48 39
-87 78 -98 21 -6 31 -15 31 -28 0 -32 32 -17 56 26 21 36 22 37 26 15 2 -16 9
-24 23 -24 18 0 20 6 19 63 0 34 0 62 2 62 2 0 14 -5 28 -11 53 -25 97 42 66
100 -7 14 -1 29 28 69 l38 50 37 -34 c20 -19 47 -34 60 -34 29 0 57 29 57 59
0 25 -53 81 -76 81 -23 0 -17 14 32 79 54 72 67 83 58 47 -4 -19 -2 -28 11
-32 10 -4 21 -1 26 7 8 12 12 11 24 -5 12 -16 11 -25 -14 -75 -16 -31 -47
-112 -71 -181 -23 -69 -46 -134 -52 -146 -5 -11 -8 -24 -7 -30 9 -32 -17 -93
-64 -146 -63 -73 -151 -123 -217 -123 -42 0 -45 -2 -45 -26 0 -22 -14 -36 -77
-79 -74 -50 -158 -129 -158 -149 0 -5 8 -11 17 -13 13 -3 6 -10 -24 -26 -66
-34 -183 -134 -243 -207 -61 -74 -180 -238 -176 -242 2 -2 41 14 87 36 46 21
165 69 264 106 290 109 348 139 479 250 l69 59 -7 -49 c-3 -28 -11 -95 -17
-150 -5 -55 -14 -130 -19 -167 -12 -78 -12 -278 -1 -393 6 -67 5 -84 -9 -105
-37 -54 -124 -220 -160 -305 -36 -84 -42 -92 -87 -115 -58 -30 -64 -55 -12
-54 l35 1 -18 -66 c-19 -69 -24 -166 -9 -175 17 -11 33 25 41 91 4 38 22 113
40 168 31 100 142 338 179 384 l19 25 10 -55 c63 -321 63 -324 46 -364 -17
-41 -12 -79 13 -107 14 -15 11 -23 -33 -80 -26 -35 -107 -133 -179 -218 -177
-210 -243 -293 -307 -392 -113 -171 -227 -411 -309 -646 -36 -104 -169 -588
-169 -614 0 -25 36 25 127 171 53 86 166 266 251 401 85 135 209 333 275 440
154 251 237 374 358 532 l98 129 3 -122 c3 -105 1 -122 -14 -130 -19 -10 -32
-44 -23 -59 4 -7 12 -7 25 0 16 9 20 7 25 -12 2 -13 17 -75 31 -138 22 -93 29
-152 35 -310 10 -273 34 -378 79 -350 12 7 11 19 -7 77 -38 117 -52 245 -37
335 6 33 9 36 25 27 45 -23 51 16 11 63 -52 60 -93 239 -108 463 -7 108 0 114
31 30 10 -27 41 -104 70 -170 29 -66 60 -147 70 -180 24 -86 77 -196 130 -271
34 -49 45 -74 45 -102 0 -82 -23 -216 -70 -402 -93 -374 -151 -740 -195 -1235
-8 -93 -22 -221 -31 -283 -9 -62 -14 -116 -11 -118 7 -7 64 95 126 226 114
241 259 739 295 1020 19 143 39 514 31 558 -8 45 1 40 29 -15 13 -27 51 -89
84 -139 l59 -90 6 -190 c6 -207 15 -257 77 -448 l40 -123 -35 -59 c-37 -61
-42 -79 -24 -89 14 -9 44 20 64 62 l17 36 34 -89 c38 -101 63 -187 94 -326 18
-82 25 -98 41 -98 28 0 25 41 -16 192 -20 72 -34 132 -32 135 2 2 15 -6 30
-17 29 -23 57 -26 57 -6 0 14 -74 87 -107 104 -17 9 -57 100 -109 247 -4 11
24 -10 64 -47 39 -37 95 -86 124 -108 29 -23 114 -101 188 -174 74 -73 161
-150 192 -171 32 -20 67 -53 78 -72 17 -30 23 -33 36 -22 8 7 13 18 10 26 -3
7 -4 13 -1 13 7 0 150 -30 166 -36 13 -4 17 -26 22 -127 6 -136 21 -193 68
-250 33 -40 66 -47 113 -26 36 17 72 -10 101 -74 25 -55 82 -265 110 -407 27
-134 55 -197 108 -239 15 -12 22 -10 56 12 30 20 42 23 49 14 15 -20 31 -77
42 -155 5 -40 17 -87 26 -104 40 -77 109 -101 153 -54 79 84 161 61 258 -73
89 -123 233 -261 272 -261 38 0 82 195 82 365 0 139 -19 233 -82 402 -65 177
-64 242 6 325 29 35 32 69 8 91 -10 8 -46 30 -80 47 -40 21 -85 55 -123 96
-52 56 -99 124 -86 124 2 0 57 -34 122 -75 65 -42 146 -89 180 -105 102 -49
294 -109 405 -126 57 -9 114 -18 125 -20 13 -2 35 -25 54 -53 55 -87 142 -151
227 -169 l37 -8 37 -124 c114 -389 266 -714 471 -1009 32 -46 58 -81 58 -77 0
4 -11 52 -25 106 -19 77 -107 531 -140 730 l-6 35 18 -25 c10 -13 68 -94 128
-179 120 -168 256 -321 286 -321 30 0 23 15 -42 87 l-62 68 37 3 c71 6 29 52
-48 52 -37 0 -19 -21 -223 264 -79 110 -141 201 -139 204 3 2 21 -1 42 -8 23
-8 60 -10 104 -6 62 6 70 5 93 -16 14 -13 54 -76 88 -141 97 -183 167 -237
308 -237 157 0 229 111 219 337 -4 93 -8 109 -41 177 -34 69 -49 146 -29 146
5 0 96 -25 203 -56 107 -31 204 -58 217 -61 12 -3 22 -9 22 -13 0 -5 -35 -33
-79 -63 -156 -110 -194 -240 -96 -326 112 -98 230 34 243 272 2 53 6 97 7 97
11 0 306 -106 360 -128 l65 -28 -92 -70 c-121 -91 -161 -146 -166 -231 -4 -61
-3 -64 31 -98 45 -45 88 -47 143 -7 72 52 123 188 124 325 0 31 4 57 10 57 5
0 98 -39 206 -87 175 -78 195 -89 178 -100 -11 -7 -48 -32 -83 -56 -35 -23
-77 -62 -95 -85 -28 -40 -31 -51 -31 -119 0 -67 3 -77 24 -94 37 -30 92 -25
143 14 86 66 158 206 144 282 l-7 34 58 -25 c84 -37 313 -157 313 -164 0 -3
-34 -28 -76 -55 -117 -76 -148 -145 -103 -225 38 -67 98 -78 153 -29 49 42 86
123 94 204 l7 66 133 -83 c72 -45 132 -86 132 -90 0 -4 -26 -21 -59 -37 -146
-74 -189 -169 -108 -237 26 -22 38 -25 75 -21 82 9 142 99 142 215 0 34 3 43
14 39 20 -8 226 -151 226 -157 0 -3 -27 -16 -60 -28 -82 -32 -130 -78 -130
-124 0 -52 32 -88 78 -88 72 0 120 50 152 158 7 23 16 42 19 42 3 -1 28 -21
55 -45 l49 -43 -39 -20 c-79 -40 -110 -100 -76 -142 15 -18 29 -24 56 -23 54
2 85 26 92 73 4 22 9 40 13 40 3 0 14 -18 24 -40 47 -101 195 -191 240 -145
66 66 -5 206 -128 250 -64 24 -62 21 -31 46 28 22 56 68 56 94 0 24 -38 55
-68 55 -40 0 -69 -24 -100 -86 l-28 -55 -47 37 c-26 20 -47 40 -47 44 0 3 12
13 26 21 34 18 101 93 125 141 28 55 25 91 -12 122 -43 37 -106 36 -150 -1
-40 -34 -89 -136 -89 -185 l0 -37 -95 66 -95 65 39 28 c86 63 141 168 127 243
-8 42 -56 87 -93 87 -60 0 -137 -125 -152 -247 l-6 -51 -128 80 -127 81 49 52
c67 70 91 121 91 190 0 46 -4 60 -25 80 -61 62 -184 3 -216 -103 -6 -21 -9
-66 -7 -100 1 -34 2 -62 1 -62 0 0 -76 37 -168 82 l-168 82 34 26 c116 87 169
166 169 252 0 111 -76 170 -169 132 -89 -35 -127 -127 -118 -282 4 -70 2 -92
-6 -88 -57 25 -360 166 -363 169 -2 2 26 35 64 74 138 140 168 268 84 356 -18
19 -23 30 -15 38 7 7 28 2 69 -19 114 -57 244 -90 244 -63 0 19 -46 42 -141
71 -98 31 -327 156 -312 171 5 4 42 21 84 38 101 42 117 54 100 75 -12 14 -17
14 -51 -4 l-38 -19 -4 24 c-4 21 0 26 31 36 20 6 69 27 109 46 41 19 76 32 79
30 2 -3 -3 -19 -11 -36 -39 -75 -8 -153 107 -265 58 -57 115 -100 192 -145 61
-36 158 -95 216 -132 170 -109 190 -104 119 30 -22 41 -38 76 -36 78 1 2 28
-6 60 -17 112 -38 196 -45 196 -17 0 7 -41 53 -91 103 l-91 91 51 -5 c72 -7
78 15 20 74 -24 24 -41 44 -39 44 3 0 41 -7 84 -15 86 -17 123 -36 229 -119
81 -63 135 -81 297 -97 63 -6 136 -13 162 -16 56 -7 127 23 154 65 71 109 -69
305 -240 336 -30 6 -57 25 -116 81 -103 98 -143 118 -240 116 -63 0 -87 4
-150 31 -106 45 -180 43 -365 -7 -143 -38 -251 -48 -304 -27 -23 8 -22 10 31
35 30 14 124 49 209 77 85 27 166 58 181 68 23 15 39 17 115 10 96 -8 276 -2
362 13 48 8 57 7 75 -10 12 -10 31 -24 44 -30 41 -22 58 11 22 44 -20 18 -19
19 75 50 52 17 105 41 117 53 21 20 21 22 3 28 -11 4 -38 0 -64 -10 -199 -77
-307 -97 -502 -94 l-150 3 77 55 c79 56 235 205 404 386 67 72 111 110 150
129 30 15 83 45 117 66 52 31 68 36 101 32 43 -6 68 13 40 30 -12 8 4 30 92
118 93 94 120 115 199 155 184 92 398 284 316 284 -7 0 -53 -40 -103 -89 -69
-69 -108 -99 -170 -130 l-80 -40 -6 24 c-4 14 -13 25 -21 25 -16 0 -45 -37
-45 -58 0 -13 -50 -70 -147 -169 -29 -29 -83 -72 -120 -96 -91 -58 -203 -120
-203 -113 0 11 30 56 93 138 32 43 90 126 129 185 39 60 110 162 159 228 261
354 353 499 383 605 l16 55 92 45 c50 25 125 70 167 101 105 77 267 225 321
293 l45 56 81 0 c193 0 582 -86 889 -198 298 -108 557 -183 573 -168 4 4 0 12
-9 17 -9 5 -112 85 -228 179 -259 208 -331 259 -443 316 -108 54 -318 125
-461 155 l-108 23 57 57 c53 54 62 79 28 79 -9 0 -45 -28 -81 -62 l-65 -63
-124 0 c-68 0 -124 3 -124 7 0 3 11 54 25 112 30 124 55 259 55 299 0 16 9 42
20 57 11 16 18 35 14 43 -6 17 22 22 236 37 401 30 747 105 1067 232 224 89
224 89 -2 86 -104 -2 -336 -1 -515 1 -273 3 -342 1 -430 -14 -180 -29 -278
-67 -397 -151 l-61 -44 -23 67 -22 66 24 43 c18 34 21 46 11 56 -9 9 -16 7
-32 -7 -11 -10 -20 -13 -20 -7 0 6 -3 17 -6 26 -5 13 2 16 40 16 77 0 113 56
81 125 -20 41 -64 68 -115 70 -54 1 -51 31 7 94 l48 51 250 60 c458 109 628
130 1038 130 300 0 585 14 600 29 8 8 -420 163 -601 217 -156 47 -212 54 -412
54 -385 -1 -679 -78 -886 -234 -34 -25 -68 -46 -77 -46 -10 0 -18 21 -27 76
-6 42 -21 101 -32 133 -17 48 -48 179 -48 204 0 4 9 3 19 -3 40 -21 87 -12
115 21 40 47 36 92 -13 140 -32 32 -46 39 -78 39 -21 0 -48 -7 -60 -15 -21
-15 -22 -14 -37 39 -20 68 -20 66 4 66 29 0 76 26 94 52 33 47 14 115 -41 149
-33 21 -65 22 -118 4 -18 -5 -23 1 -39 52 -10 32 -48 126 -83 210 l-65 152 20
83 c12 46 28 137 37 203 25 191 35 221 223 635 146 325 192 457 171 492 -13
20 -24 2 -54 -89 -24 -74 -45 -106 -45 -69 0 22 -29 41 -42 28 -8 -8 -6 -26 9
-66 l20 -54 -97 -214 c-53 -117 -112 -252 -131 -300 -19 -49 -37 -88 -41 -88
-4 0 -9 9 -13 19 -7 24 -34 35 -41 17 -3 -7 3 -38 14 -69 11 -34 15 -63 10
-76 -4 -11 -16 -87 -28 -168 -11 -82 -24 -161 -28 -177 -8 -29 -9 -28 -30 30
-12 32 -42 95 -68 139 -25 44 -47 87 -48 94 -2 8 -8 17 -15 19 -17 6 -93 88
-108 117 -10 19 -10 29 4 55 23 47 8 97 -36 127 -19 13 -45 23 -58 23 -22 0
-34 21 -115 188 l-90 187 6 62 c4 33 11 75 17 93 8 23 8 35 1 42 -17 17 -40
-8 -48 -51 -4 -20 -9 -39 -11 -44 -5 -9 -90 163 -139 281 -31 73 -34 87 -24
120 15 56 13 92 -6 92 -9 0 -18 -9 -21 -20 -3 -11 -8 -20 -12 -20 -7 1 -111
225 -111 239 0 5 16 12 35 15 73 14 149 119 180 247 19 81 19 246 0 370 -15
104 -31 149 -51 149 -19 0 -69 -66 -111 -144 l-36 -70 -24 88 c-28 106 -43
141 -63 141 -20 0 -34 -32 -70 -152 -17 -57 -34 -103 -38 -102 -4 0 -20 21
-37 46 -61 95 -75 63 -75 -172 0 -148 -2 -174 -16 -179 -9 -3 -18 -6 -20 -6
-2 0 -4 22 -4 49 0 114 -34 271 -58 271 -21 0 -21 -38 -2 -146 15 -84 20 -145
18 -242 l-3 -130 -84 60 c-51 36 -90 58 -101 55 -12 -3 -22 4 -30 22 -21 46
-52 132 -48 135 1 1 20 13 41 25 78 48 98 151 53 285 -14 39 -47 129 -75 199
-28 70 -72 198 -97 285 -25 86 -52 164 -60 172 -14 13 -17 12 -35 -9 -10 -13
-26 -49 -35 -80 -32 -116 -24 -112 -82 -34 -60 81 -148 167 -162 158 -18 -11
-11 -74 20 -177 30 -100 52 -208 42 -208 -3 0 -24 18 -48 40 -53 49 -74 52
-74 9 0 -32 129 -377 183 -487 57 -117 151 -187 244 -180 l45 3 27 -75 c37
-99 89 -201 146 -284 25 -37 40 -65 33 -60 -53 30 -513 391 -596 467 l-42 40
40 43 c48 52 52 89 16 123 -47 44 -137 37 -198 -16 -30 -27 -87 20 -88 72 0 6
13 16 30 23 48 22 90 67 90 97 0 35 -59 95 -93 95 l-26 0 45 106 c64 154 77
212 78 339 1 81 -6 137 -23 213 -13 57 -20 115 -17 130 12 53 -14 -5 -38 -86
-13 -42 -49 -142 -79 -222 -30 -80 -61 -174 -68 -210 -7 -36 -14 -67 -15 -68
-1 -2 -16 6 -33 19 -21 16 -43 22 -76 21 -35 0 -45 3 -45 16 0 10 -4 23 -9 31
-8 12 -12 12 -25 2 -9 -8 -16 -22 -16 -32 0 -28 -12 -23 -55 21 l-39 40 26 27
c59 62 53 131 -14 173 -63 40 -144 9 -198 -77 l-28 -43 -67 102 -67 103 65 7
c73 7 116 26 146 64 66 84 -48 201 -147 150 -41 -21 -63 -50 -82 -107 l-18
-52 -56 95 c-77 132 -76 124 -17 130 85 8 151 75 151 153 0 46 -36 85 -80 85
-33 0 -98 -51 -127 -101 -22 -37 -33 -37 -33 2 0 47 -29 149 -57 201 -32 59
-68 76 -111 54 -38 -20 -72 -62 -72 -90 1 -42 41 -109 101 -167 60 -57 61 -59
33 -59 -84 -1 -158 -74 -137 -136 23 -70 102 -70 182 2 l50 45 27 -48 c15 -26
43 -74 62 -106 19 -32 32 -60 30 -63 -3 -2 -35 9 -71 26 -74 33 -92 35 -181
19 -79 -15 -107 -2 -176 84 -111 135 -133 159 -183 192 -105 71 -160 67 -202
-15 -14 -27 -28 -50 -32 -50 -17 0 -80 59 -139 130 -77 93 -161 144 -230 138
-36 -3 -41 -7 -64 -53 -23 -45 -28 -50 -58 -49 -19 1 -84 31 -159 73 -71 38
-149 80 -176 91 -97 43 -248 61 -324 39z m2187 -921 c0 -5 -8 -8 -18 -8 -15 0
-39 49 -70 145 -2 5 17 -21 42 -60 25 -38 46 -73 46 -77z m259 -124 c57 -53
64 -63 52 -77 -7 -9 -18 -35 -25 -58 l-12 -41 -81 108 c-44 60 -83 114 -86
119 -3 7 12 10 40 10 42 0 51 -5 112 -61z m-2405 26 c119 -42 259 -111 249
-121 -9 -9 -38 -17 -328 -84 -249 -58 -494 -141 -708 -239 l-79 -36 70 78 c99
108 192 196 302 286 21 17 368 144 397 145 6 1 50 -13 97 -29z m2294 -96 c52
-69 92 -127 90 -128 -6 -5 -125 -46 -132 -46 -3 0 -6 5 -6 11 0 7 -20 56 -44
110 l-45 98 16 40 c9 23 19 41 22 41 3 -1 48 -57 99 -126z m-2896 -50 c-12 -8
-22 -23 -22 -32 0 -10 -69 -85 -152 -169 -117 -115 -162 -154 -193 -163 -91
-28 -256 -123 -305 -175 -33 -35 -40 -32 -40 18 0 41 4 48 68 108 37 35 89 88
114 117 26 29 49 48 53 42 12 -20 25 -10 25 21 0 43 53 104 119 136 52 26 309
110 341 112 9 1 6 -5 -8 -15z m1104 -29 c-28 -8 -55 -11 -60 -7 -11 7 40 19
84 20 14 0 3 -6 -24 -13z m-111 -19 c17 -12 15 -15 -31 -36 -103 -46 -141 -58
-201 -62 -34 -2 -60 -1 -58 2 9 14 155 81 207 94 67 18 61 18 83 2z m2309 -57
c4 -34 5 -63 3 -66 -3 -2 -19 15 -35 39 l-30 44 21 21 c12 11 25 21 28 22 4 0
10 -26 13 -60z m-1834 47 c0 -2 -9 -24 -21 -50 l-20 -47 -177 7 c-97 4 -195
10 -217 13 -37 7 -33 8 70 30 176 38 246 49 308 50 31 1 57 -1 57 -3z m-835
-25 c-30 -27 -141 -91 -161 -91 -35 0 -248 -38 -338 -60 -44 -11 -90 -23 -101
-25 -51 -12 53 29 166 65 111 36 407 117 434 119 6 1 6 -2 0 -8z m1179 -41
c32 -12 72 -35 90 -51 l31 -30 -35 6 c-19 2 -89 9 -155 15 -172 15 -185 18
-185 40 0 50 7 53 104 47 59 -3 111 -12 150 -27z m1442 -62 c13 -25 13 -32 -2
-60 -9 -18 -18 -34 -19 -36 -8 -9 -62 38 -106 92 l-49 61 57 11 c56 11 59 10
81 -15 13 -14 30 -38 38 -53z m-136 -50 c0 -8 -71 11 -83 21 -4 4 -4 22 -1 40
l7 33 38 -44 c21 -23 38 -46 39 -50z m-1837 65 c76 -3 137 -9 137 -12 0 -3
-90 -19 -200 -34 -111 -16 -240 -39 -288 -53 -202 -55 -637 -143 -615 -124 7
7 385 160 395 160 2 0 4 -12 3 -27 0 -21 5 -28 20 -28 14 0 22 11 30 39 10 33
19 43 61 62 43 19 66 22 185 23 75 1 197 -2 272 -6z m-570 -10 c-13 -2 -33 -2
-45 0 -13 2 -3 4 22 4 25 0 35 -2 23 -4z m-263 -23 c-8 -5 -31 -9 -50 -8 l-35
1 40 7 c59 11 61 11 45 0z m-93 -16 c-3 -3 -12 -4 -19 -1 -8 3 -5 6 6 6 11 1
17 -2 13 -5z m248 -4 c-27 -12 -43 -12 -25 0 8 5 22 9 30 9 10 0 8 -3 -5 -9z
m-219 -19 c-16 -25 -776 -290 -834 -291 -2 0 15 23 38 50 32 38 62 60 124 89
163 78 309 113 669 160 5 1 6 -3 3 -8z m1024 -61 l0 -70 -181 0 c-257 0 -560
-37 -816 -100 -106 -26 -193 -46 -193 -45 0 1 5 16 11 34 12 35 13 35 144 52
110 14 263 46 500 104 141 35 438 88 523 94 8 1 12 -19 12 -69z m340 50 c166
-16 165 -15 166 -52 1 -20 10 -37 25 -49 13 -10 18 -19 11 -19 -7 0 -20 7 -28
15 -9 8 -25 15 -36 15 -15 0 -19 -5 -15 -20 4 -16 -2 -21 -32 -27 -53 -11
-258 -10 -270 2 -5 6 -13 43 -17 83 l-7 74 44 -6 c24 -3 96 -10 159 -16z
m1063 -26 c20 -17 41 -24 70 -24 33 0 58 -11 121 -51 59 -38 76 -53 67 -62 -8
-8 -56 11 -194 78 -100 49 -186 92 -190 96 -5 4 15 2 44 -3 30 -5 66 -20 82
-34z m-143 -9 c59 -24 359 -172 369 -181 3 -3 0 -8 -5 -13 -13 -12 -299 94
-414 154 -52 28 -101 51 -107 53 -25 7 -13 21 20 24 36 4 46 1 137 -37z m353
9 c-4 -11 -9 -12 -19 -3 -17 14 -9 30 11 23 7 -3 11 -12 8 -20z m147 -31 c34
-14 34 -15 15 -29 -35 -26 -61 -27 -99 -2 -42 27 -43 31 -13 46 23 11 40 9 97
-15z m-759 -13 c63 -20 163 -69 144 -70 -21 -1 -225 72 -225 81 0 13 10 12 81
-11z m-96 -42 c164 -46 444 -142 495 -170 80 -44 571 -370 566 -375 -8 -8
-131 28 -193 57 -34 15 -124 68 -200 116 -226 143 -281 173 -387 216 -192 77
-303 108 -481 134 l-50 7 70 22 c75 23 74 23 180 -7z m1031 -24 c32 -19 52
-41 70 -76 15 -29 22 -54 17 -59 -8 -8 -85 71 -142 144 -20 25 2 22 55 -9z
m-3777 -28 c-12 -11 -152 -86 -155 -83 -4 4 138 86 150 87 5 0 7 -2 5 -4z
m3757 -63 c33 -37 52 -63 44 -58 -26 15 -120 85 -120 89 0 7 12 36 15 36 1 0
29 -30 61 -67z m-380 -4 c58 -22 87 -38 103 -60 20 -27 27 -30 70 -28 31 2 68
-6 105 -20 59 -25 65 -31 42 -50 -11 -10 -22 -9 -47 5 -18 9 -79 34 -136 55
-57 22 -134 58 -171 81 -75 46 -98 65 -67 54 11 -4 56 -21 101 -37z m-2766
-16 c-11 -37 -14 -39 -118 -77 -59 -21 -147 -54 -196 -73 -48 -19 -172 -55
-275 -79 -102 -24 -196 -46 -208 -50 -97 -28 156 116 332 189 71 29 218 71
191 54 -41 -26 -76 -59 -76 -73 0 -24 36 -15 91 22 112 75 250 141 267 128 2
-1 -2 -19 -8 -41z m885 38 c-73 -30 -653 -151 -771 -161 -65 -6 -156 -15 -201
-21 -46 -6 -87 -9 -93 -7 -6 2 44 22 112 45 167 57 453 110 693 129 105 8 199
16 210 18 11 2 31 4 45 4 22 1 23 0 5 -7z m1144 -32 c111 -25 577 -217 530
-219 -3 0 -44 16 -92 35 -128 52 -333 121 -491 166 -77 21 -141 41 -144 43 -9
10 117 -7 197 -25z m-279 -3 c322 -82 572 -165 835 -275 77 -33 175 -74 218
-91 43 -18 77 -34 75 -35 -2 -2 -69 18 -150 45 -332 111 -711 181 -1126 209
-79 5 -146 12 -148 14 -9 9 -37 118 -32 123 3 3 55 11 114 18 60 7 111 14 114
15 3 0 48 -10 100 -23z m-2431 -29 c-21 -18 -56 -37 -78 -43 -51 -14 -47 -10
32 37 77 46 93 48 46 6z m1959 -45 c8 -29 12 -55 9 -59 -3 -3 -158 -2 -344 2
l-338 8 140 34 c159 38 384 72 464 70 l54 -2 15 -53z m1781 2 c14 -12 -19 -1
-35 12 -18 14 -18 14 6 3 14 -6 27 -13 29 -15z m453 -88 c138 -124 430 -359
530 -426 37 -24 65 -46 63 -48 -6 -6 -50 21 -241 152 -104 70 -252 165 -329
210 -103 61 -149 94 -173 126 -18 23 -31 45 -28 47 4 5 56 19 78 22 4 1 49
-37 100 -83z m-2417 6 l211 -2 43 -129 c54 -162 62 -256 32 -376 -11 -44 -18
-81 -16 -83 6 -7 77 100 102 154 35 77 42 196 19 313 -9 44 -19 88 -23 98 -6
15 5 16 123 10 499 -26 978 -131 1414 -312 133 -55 137 -57 325 -211 105 -85
265 -216 358 -290 92 -75 167 -138 167 -140 0 -2 -25 7 -56 21 -61 27 -118 33
-112 13 6 -16 36 -32 112 -59 l59 -21 -32 -30 c-57 -54 -25 -69 39 -18 l38 30
44 -16 c24 -10 75 -39 113 -66 39 -27 127 -88 198 -135 86 -58 127 -92 127
-105 0 -12 7 -18 24 -18 14 0 36 -10 50 -22 24 -22 25 -26 14 -65 -10 -36 -9
-48 5 -78 25 -53 70 -77 134 -71 l53 5 37 -77 c38 -79 37 -70 46 -300 l4 -83
-29 52 c-36 67 -70 112 -127 172 -37 38 -45 53 -43 77 6 55 -73 103 -128 77
-38 -18 -40 -75 -4 -110 32 -33 70 -44 95 -29 15 10 27 1 81 -57 83 -90 141
-200 178 -342 l29 -113 -47 46 c-26 25 -64 57 -84 73 -35 25 -38 32 -38 75 0
79 -57 130 -145 130 -108 0 -152 -126 -74 -215 53 -60 144 -65 188 -10 l19 25
49 -38 c83 -66 139 -137 162 -204 19 -55 19 -62 5 -73 -14 -10 -13 -15 11 -43
23 -28 24 -32 8 -32 -10 0 -25 -5 -33 -10 -23 -15 7 -31 46 -24 32 6 31 8 82
-115 3 -8 -11 -2 -31 13 -56 43 -132 67 -230 73 -69 5 -90 10 -97 23 -25 47
-116 49 -165 4 -22 -21 -26 -31 -21 -56 9 -43 32 -66 79 -79 56 -15 85 -5 105
37 l17 36 95 -4 c116 -4 180 -31 252 -105 38 -40 62 -83 137 -251 l91 -204 0
-105 0 -105 -31 24 c-78 58 -97 83 -122 163 l-25 79 29 27 c60 56 23 154 -59
154 -58 0 -92 -34 -92 -91 0 -34 5 -47 26 -63 15 -12 34 -21 44 -21 12 0 21
-16 33 -57 9 -32 19 -66 22 -75 4 -11 2 -18 -4 -18 -6 0 -15 10 -20 23 -5 12
-23 36 -41 52 -87 82 -223 -13 -190 -134 14 -54 50 -81 109 -81 54 0 98 25
121 70 l16 30 74 -51 c120 -81 109 -28 100 -472 -5 -214 -11 -391 -14 -394 -3
-3 -16 7 -28 23 -13 16 -46 54 -75 86 -56 61 -73 103 -73 186 0 47 2 52 23 52
53 0 103 68 93 126 -12 62 -98 108 -159 85 -34 -13 -67 -66 -67 -109 0 -25 9
-42 32 -65 28 -27 34 -43 43 -105 6 -40 8 -71 5 -70 -3 2 -35 23 -72 47 -55
36 -68 50 -68 71 0 50 -58 100 -116 100 -32 0 -94 -59 -94 -90 0 -37 31 -90
63 -106 34 -18 81 -13 109 13 22 20 40 13 123 -50 62 -47 210 -194 239 -239
15 -23 15 -36 -4 -189 -27 -212 -89 -521 -138 -679 l-38 -125 -48 -16 c-55
-17 -64 -31 -65 -102 -1 -26 -7 -63 -15 -82 -14 -33 -23 -38 -81 -47 -19 -3
-20 -10 -17 -108 3 -95 2 -108 -18 -132 -12 -16 -35 -30 -56 -34 -42 -8 -58
-34 -51 -83 5 -31 1 -42 -29 -76 -24 -26 -30 -30 -18 -12 28 45 6 52 -60 18
-83 -44 -179 -77 -281 -96 -112 -21 -177 -48 -214 -90 -49 -56 -60 -117 -36
-192 6 -18 3 -23 -11 -23 -31 0 -170 -65 -212 -99 -22 -17 -43 -31 -46 -31 -4
0 5 23 20 52 37 73 146 354 184 475 31 98 33 101 55 93 80 -30 217 90 279 245
48 121 127 565 99 565 -16 0 -59 -52 -98 -120 -20 -36 -39 -67 -42 -70 -2 -2
-1 52 2 120 5 87 3 134 -5 155 l-11 30 -27 -31 c-15 -17 -51 -71 -81 -118 -29
-48 -54 -86 -56 -84 -1 2 2 36 7 77 11 92 1 105 -41 54 -39 -47 -192 -346
-220 -430 -27 -81 -28 -201 -2 -258 18 -41 82 -105 104 -105 36 -1 38 -15 12
-106 -27 -91 -102 -288 -137 -357 l-19 -37 -77 78 c-58 59 -91 85 -135 102
-50 21 -56 26 -50 44 5 12 8 44 8 73 0 87 -62 147 -163 157 -147 16 -234 29
-309 49 -45 12 -85 18 -90 13 -4 -4 22 -36 60 -70 l67 -61 -79 3 c-44 2 -87 0
-96 -6 -15 -8 -13 -12 17 -36 20 -14 62 -37 94 -50 48 -20 55 -26 39 -31 -56
-20 -145 -65 -145 -74 0 -11 5 -13 107 -31 34 -6 94 -22 134 -35 117 -40 225
-30 303 28 30 22 33 23 71 8 63 -25 111 -58 156 -109 75 -86 76 -90 28 -180
-63 -117 -246 -423 -272 -454 -21 -26 -24 -27 -63 -16 l-42 11 -5 66 c-3 36
-12 89 -21 118 -32 102 -140 213 -246 254 -68 26 -145 21 -269 -16 -118 -35
-171 -43 -382 -59 -240 -17 -254 -24 -144 -72 36 -16 65 -31 65 -35 0 -9 -69
-37 -125 -50 -57 -14 -85 -26 -85 -38 0 -10 103 -53 204 -86 l68 -22 -78 -48
c-78 -46 -134 -91 -134 -106 0 -13 71 -29 130 -29 62 -1 109 -10 335 -69 127
-34 179 -42 250 -43 165 -2 276 41 368 142 51 57 58 61 86 55 17 -4 34 -11 37
-16 13 -22 -151 -215 -370 -435 l-231 -231 -165 -17 c-213 -22 -230 -23 -230
-16 0 3 24 21 52 40 56 37 211 168 240 202 10 11 15 24 12 29 -12 21 -43 6
-94 -46 -30 -30 -58 -55 -62 -55 -4 0 -8 13 -8 28 0 16 -6 37 -14 48 -14 18
-15 18 -22 1 -3 -10 -4 -39 0 -66 l6 -47 -97 -71 c-121 -86 -121 -86 -215
-108 -72 -17 -111 -18 -665 -7 -535 11 -677 19 -884 47 l-53 7 59 23 c93 34
96 36 92 54 -3 17 -6 17 -50 7 -28 -7 -28 -6 -22 23 11 49 -13 45 -39 -7 -22
-44 -30 -50 -81 -67 -56 -17 -60 -17 -174 4 -176 34 -294 64 -279 72 40 22
328 68 998 159 158 21 195 28 187 36 -8 9 -293 53 -417 65 -140 13 -322 7
-452 -16 -46 -8 -164 -37 -263 -65 -206 -59 -300 -80 -354 -80 -32 0 -153 43
-291 103 -31 14 -99 67 -338 262 -33 28 -61 53 -61 56 -1 3 29 2 67 -3 123
-15 635 -67 812 -83 96 -9 222 -23 279 -31 93 -12 123 -13 110 0 -10 10 -352
130 -525 185 -384 121 -562 156 -849 166 l-200 8 -45 37 c-46 39 -145 109
-402 284 -255 175 -386 295 -467 428 -21 35 -21 39 -7 54 42 41 30 110 -24
136 -26 13 -38 28 -47 58 -6 22 -9 40 -6 40 3 0 22 -13 42 -28 20 -16 54 -39
76 -52 22 -14 54 -39 71 -57 53 -56 134 -38 134 29 0 65 -95 104 -139 57 l-20
-22 -48 31 c-26 17 -68 49 -93 71 l-45 40 46 1 c26 0 65 7 89 15 37 13 44 13
63 0 34 -24 90 -19 120 10 31 32 38 64 21 103 -15 36 -41 52 -84 52 -39 0 -90
-47 -90 -83 0 -39 -68 -62 -155 -52 -64 6 -66 8 -131 73 l-66 67 63 3 c48 2
65 0 71 -12 15 -26 67 -48 97 -41 33 7 76 50 84 83 22 91 -96 150 -164 83 -16
-16 -29 -38 -29 -49 0 -24 -18 -32 -68 -32 -73 0 -79 5 -101 89 -31 115 -31
115 30 90 29 -11 61 -26 73 -34 28 -21 80 -19 99 3 23 25 31 75 18 101 -13 23
-60 51 -86 51 -18 0 -69 -46 -76 -68 -4 -11 -13 -10 -46 3 -35 14 -41 21 -47
53 -10 62 -7 92 8 92 25 0 73 49 80 80 6 35 -12 87 -38 109 -9 7 -31 17 -49
20 -30 6 -32 10 -41 65 -8 53 -7 59 14 73 23 16 50 70 50 98 0 26 -55 75 -84
75 -25 0 -26 2 -26 65 0 62 1 65 24 65 52 0 115 85 97 132 -12 33 -45 59 -82
67 l-31 6 1 280 c1 154 4 281 6 284 3 2 27 7 54 12 62 9 251 88 436 181 77 38
143 73 147 76 4 4 -37 7 -90 8 -53 0 -160 9 -237 19 -89 11 -168 15 -216 12
l-77 -6 5 42 c11 101 35 272 38 275 1 2 9 -29 16 -68 7 -40 20 -82 30 -94 17
-20 18 -20 25 -2 4 10 0 51 -10 90 -22 98 -22 100 14 81 39 -20 62 -19 58 2
-2 10 -22 25 -48 34 -41 15 -46 20 -54 60 -20 105 96 530 235 863 54 129 54
128 354 491 77 94 162 198 188 232 26 34 51 64 56 67 4 3 2 -20 -5 -52 -14
-60 -10 -96 9 -89 7 2 16 18 22 35 10 36 17 39 35 17 13 -16 40 -21 40 -7 0 4
-11 24 -25 44 -23 34 -24 40 -14 91 9 43 28 79 85 159 40 56 111 159 158 228
98 145 166 237 166 225 0 -4 -13 -51 -29 -104 -45 -146 -69 -245 -90 -382 -50
-308 -73 -708 -52 -914 20 -196 28 -208 54 -80 10 47 47 183 83 302 154 516
231 859 289 1293 10 69 21 132 26 141 8 16 175 124 289 187 78 44 264 126 340
151 74 25 201 44 428 66 86 9 202 25 257 38 106 24 113 24 720 19z m-1940 -22
c-9 -10 -47 -37 -84 -59 -36 -22 -82 -51 -101 -63 -34 -22 -33 -21 18 42 40
51 62 69 100 82 26 9 56 17 66 18 18 0 18 -1 1 -20z m3895 -26 c0 -2 -9 0 -20
6 -11 6 -20 13 -20 16 0 2 9 0 20 -6 11 -6 20 -13 20 -16z m266 -23 c50 -38
102 -83 89 -79 -5 2 -42 19 -81 37 -58 27 -71 36 -67 52 7 25 13 24 59 -10z
m-4387 -67 c-62 -74 -219 -206 -249 -209 -8 -1 -25 -7 -37 -13 -47 -26 -38 -9
31 57 60 58 297 241 313 241 2 0 -24 -34 -58 -76z m5381 -19 c24 -50 78 -100
126 -115 30 -10 32 -13 38 -83 8 -81 41 -239 61 -295 7 -20 22 -61 34 -90 24
-60 22 -60 -61 9 -31 26 -84 64 -117 84 -34 21 -61 43 -61 50 0 6 11 22 25 35
23 22 34 60 17 60 -4 0 -18 -7 -30 -16 -13 -9 -25 -14 -27 -13 -2 2 -20 62
-40 133 -33 113 -37 138 -31 194 5 44 13 70 24 78 9 8 18 14 19 14 0 0 11 -20
23 -45z m-4720 22 c-132 -59 -301 -145 -370 -189 -47 -30 -98 -62 -115 -72
l-30 -18 30 26 c118 103 327 227 421 250 71 17 98 19 64 3z m3821 -69 c137
-69 165 -87 167 -107 3 -22 1 -23 -28 -17 -53 10 -200 80 -283 134 -69 44 -77
51 -60 61 10 6 23 11 29 11 6 0 84 -37 175 -82z m237 -45 c50 -29 92 -56 92
-58 0 -2 -52 20 -115 50 -97 46 -205 115 -205 132 0 5 92 -44 228 -124z
m-4943 38 c-11 -11 -57 -50 -103 -89 -60 -50 -89 -68 -103 -65 -11 3 -18 7
-17 8 10 9 234 165 238 165 2 0 -4 -9 -15 -19z m572 12 c-14 -13 -172 -111
-175 -108 -2 2 3 16 11 31 11 22 33 35 88 56 82 30 85 31 76 21z m4766 -17
c21 -16 22 -26 2 -26 -8 0 -19 9 -25 20 -12 23 -3 25 23 6z m121 -85 c48 -36
51 -41 76 -134 15 -53 25 -97 21 -97 -18 0 -201 229 -201 251 0 6 15 11 50 17
3 1 27 -16 54 -37z m411 -121 c26 -58 72 -166 102 -240 30 -74 57 -141 60
-149 4 -9 -2 -8 -21 4 -20 13 -30 15 -38 7 -16 -16 13 -55 56 -76 30 -14 44
-33 83 -109 l46 -92 -94 99 c-52 54 -109 125 -128 158 -42 74 -94 228 -115
337 -17 88 -21 191 -8 176 5 -6 30 -57 57 -115z m-837 61 c53 -26 131 -63 172
-81 73 -32 182 -99 195 -120 4 -6 -20 6 -52 27 -32 20 -126 67 -209 103 -126
54 -240 119 -211 120 4 0 51 -22 105 -49z m-4832 -36 c-28 -65 -43 -84 -104
-135 -39 -33 -74 -56 -77 -50 -3 5 35 63 84 129 81 107 100 128 123 130 4 1
-8 -33 -26 -74z m4429 24 c42 -8 93 -31 179 -81 67 -39 186 -107 266 -151 251
-139 452 -271 547 -360 49 -45 122 -111 163 -147 138 -119 205 -183 246 -236
39 -49 41 -57 36 -101 -2 -26 -6 -50 -8 -52 -8 -9 -170 138 -223 203 -100 121
-338 347 -507 482 -182 146 -379 264 -629 379 -82 37 -152 70 -154 72 -8 6 25
3 84 -8z m-4845 -18 c0 -11 -63 -41 -87 -41 -14 0 -12 5 12 25 29 24 75 34 75
16z m79 -34 c-2 -2 -17 -11 -34 -22 l-30 -18 19 21 c11 12 26 22 34 22 9 0 13
-1 11 -3z m-240 -103 c-18 -27 -61 -78 -95 -114 -34 -36 -74 -80 -89 -97 -24
-29 -55 -44 -55 -27 0 23 254 303 265 292 3 -3 -9 -28 -26 -54z m5341 -145
c204 -129 402 -285 415 -326 6 -16 16 -38 24 -47 51 -61 -94 9 -214 103 -49
40 -126 99 -170 133 -44 34 -109 87 -145 118 -36 31 -109 91 -162 133 -54 43
-98 80 -98 83 0 11 196 -99 350 -197z m-5485 95 c-42 -47 -92 -108 -112 -135
-19 -27 -39 -49 -43 -49 -10 0 -41 42 -64 88 -15 29 -15 35 -2 61 9 16 36 47
62 69 44 39 49 41 122 45 43 1 85 4 95 5 12 1 -7 -27 -58 -84z m5623 66 c17
-11 32 -22 32 -25 0 -5 -41 15 -70 34 -28 19 5 11 38 -9z m-107 -127 c108 -63
203 -129 328 -230 168 -135 429 -383 404 -383 -15 0 -299 264 -314 291 -5 10
-17 19 -25 19 -9 0 -66 40 -128 89 -113 89 -335 238 -458 306 -38 20 -68 39
-68 41 0 10 124 -53 261 -133z m-5021 104 c0 -7 -13 -28 -30 -47 -104 -121
-188 -223 -227 -278 -25 -34 -58 -69 -74 -78 -17 -8 -27 -19 -24 -24 3 -5 -49
-78 -117 -162 -171 -212 -267 -370 -394 -651 -37 -81 -69 -145 -72 -143 -2 3
1 35 8 72 9 49 29 94 77 178 36 61 89 153 119 204 30 51 66 116 80 145 73 146
243 389 365 523 45 49 96 106 113 128 24 30 161 145 174 146 1 0 2 -6 2 -13z
m151 -46 c-12 -21 -93 -92 -99 -86 -8 8 15 35 58 69 52 42 54 42 41 17z m5151
-12 c62 -36 245 -167 254 -180 3 -6 -39 19 -93 54 -54 35 -120 76 -148 92 -27
16 -61 37 -74 47 -40 30 2 22 61 -13z m-5357 -256 c-248 -361 -225 -332 -225
-290 0 26 4 37 15 37 8 0 15 6 15 14 0 7 -7 19 -15 26 -8 7 -15 17 -15 23 0 9
308 327 317 327 1 0 -40 -62 -92 -137z m25 109 c0 -4 -54 -61 -120 -127 -66
-66 -120 -113 -120 -106 0 15 218 241 232 241 4 0 8 -3 8 -8z m-617 -136 c-10
-13 -19 -23 -21 -21 -7 6 19 45 29 45 5 0 2 -11 -8 -24z m108 -88 c-12 -18
-60 -95 -107 -170 -95 -152 -138 -201 -81 -93 36 67 193 295 204 295 3 0 -5
-15 -16 -32z m118 -210 c-116 -148 -248 -341 -331 -488 -26 -47 -48 -81 -48
-77 0 26 163 320 237 425 80 116 248 314 251 297 2 -8 -47 -79 -109 -157z
m5971 67 l55 -55 -52 27 c-40 21 -52 34 -55 55 -3 16 -4 28 -3 28 0 0 25 -25
55 -55z m-5874 -52 c-10 -93 -12 -99 -51 -122 -24 -14 -33 -25 -29 -36 4 -10
-3 -27 -18 -43 -14 -15 -53 -64 -86 -109 -34 -44 -92 -117 -129 -160 -37 -44
-95 -114 -128 -156 -32 -42 -61 -74 -63 -72 -8 7 128 244 223 390 82 125 270
375 283 375 2 0 1 -30 -2 -67z m6369 27 c3 -5 1 -10 -4 -10 -6 0 -11 5 -11 10
0 6 2 10 4 10 3 0 8 -4 11 -10z m-6863 -86 c-16 -33 -51 -109 -76 -170 -26
-61 -58 -122 -71 -134 -14 -13 -25 -21 -25 -18 0 8 162 341 178 366 27 42 24
14 -6 -44z m6548 -71 c19 -13 30 -23 23 -23 -12 0 -133 79 -133 87 0 5 50 -24
110 -64z m492 -40 c10 -9 18 -22 18 -29 0 -7 6 -17 14 -21 12 -7 76 -123 76
-138 0 -16 -57 41 -110 111 -52 68 -58 80 -43 86 25 10 25 10 45 -9z m-7007
-53 c-9 -18 -19 -30 -22 -27 -3 3 3 19 13 36 23 39 30 32 9 -9z m6940 -132
c14 -29 25 -62 25 -72 0 -17 -4 -16 -30 9 -24 23 -30 37 -30 72 0 24 2 43 5
43 3 0 17 -24 30 -52z m-7281 -20 c-4 -12 -35 -70 -69 -128 -34 -58 -86 -152
-115 -210 l-52 -104 -13 38 c-8 21 -18 43 -24 49 -6 6 1 25 22 56 33 48 249
320 255 321 2 0 0 -10 -4 -22z m61 -53 c-24 -64 -73 -141 -82 -131 -5 4 62
143 90 187 21 33 18 13 -8 -56z m102 -4 c-10 -35 -96 -156 -104 -147 -2 1 5
26 15 54 15 46 88 149 98 139 2 -2 -2 -22 -9 -46z m7143 -81 c44 -50 50 -63
40 -75 -13 -16 -19 -9 -95 108 -31 48 1 29 55 -33z m-7170 -37 c-5 -20 -33
-73 -64 -118 -30 -44 -58 -88 -62 -98 -3 -9 -10 -17 -14 -17 -5 0 2 33 14 74
18 58 35 87 77 135 29 34 54 61 55 61 1 0 -2 -16 -6 -37z m7134 -64 c15 -22
25 -43 23 -46 -6 -5 -57 67 -57 79 0 15 8 8 34 -33z m226 -14 c21 -36 21 -38
3 -20 -12 11 -24 31 -28 45 -9 30 -5 27 25 -25z m-7555 -55 c-38 -75 -58 -91
-30 -24 17 42 57 105 63 99 2 -1 -13 -35 -33 -75z m7461 17 c9 -28 19 -59 21
-67 3 -8 -13 12 -35 45 -27 42 -36 64 -29 72 14 19 24 8 43 -50z m-136 -7 c5
-10 0 -31 -16 -60 l-23 -45 0 80 c0 74 1 79 15 60 9 -11 19 -27 24 -35z m79
-42 c31 -42 39 -68 21 -68 -10 0 -60 81 -60 98 0 19 7 14 39 -30z m483 -73
c41 -81 20 -58 -26 30 -21 39 -30 61 -21 50 9 -11 30 -47 47 -80z m-517 14
c29 -26 35 -38 35 -71 0 -33 7 -46 38 -77 20 -20 50 -67 65 -102 l28 -66 -40
-59 c-41 -62 -71 -138 -71 -179 0 -54 -19 -28 -49 68 -33 108 -80 330 -81 383
0 28 28 134 36 134 2 0 19 -14 39 -31z m445 11 c11 -21 4 -25 -19 -11 -7 5
-10 14 -7 20 10 15 14 14 26 -9z m-183 -57 c27 -38 52 -82 56 -99 5 -27 1 -34
-24 -53 -17 -13 -32 -21 -33 -19 -1 1 -13 50 -25 108 -13 57 -26 110 -28 117
-11 29 8 10 54 -54z m-7697 -14 c-12 -23 -23 -39 -26 -37 -7 8 26 78 36 78 6
0 1 -18 -10 -41z m48 -27 c-6 -23 -14 -39 -18 -37 -5 3 -1 23 7 45 20 51 25
47 11 -8z m147 -33 c-9 -34 -30 -90 -47 -123 -42 -85 -110 -198 -115 -192 -2
2 3 42 11 89 14 79 20 94 88 195 40 61 74 107 76 102 2 -4 -4 -36 -13 -71z
m-398 -48 c-44 -62 -117 -131 -139 -131 -14 0 -18 8 -18 38 0 31 11 54 51 110
l51 71 44 -21 43 -21 -32 -46z m8206 -161 c-9 -39 -22 -69 -27 -67 -6 2 -22
44 -35 94 l-23 92 22 32 23 32 29 -56 28 -56 -17 -71z m-394 104 c7 -30 11
-57 9 -60 -3 -2 -16 23 -31 56 -23 54 -24 60 -8 60 13 0 21 -14 30 -56z
m-7769 -31 c-16 -37 -34 -69 -40 -71 -6 -2 5 28 24 67 20 39 38 71 40 71 2 0
-9 -30 -24 -67z m79 15 c-12 -24 -29 -65 -39 -92 -9 -27 -19 -46 -22 -40 -7
12 61 174 73 174 5 0 0 -19 -12 -42z m-146 -22 c-16 -33 -31 -52 -39 -49 -9 3
-2 20 23 54 19 27 37 49 39 49 2 0 -8 -24 -23 -54z m7992 11 c4 -13 5 -43 3
-68 l-3 -44 -22 22 c-32 32 -39 70 -18 93 24 26 33 25 40 -3z m-8235 -55 c0
-4 -11 -23 -24 -41 l-24 -32 -21 29 -20 29 32 11 c41 13 57 14 57 4z m8347
-98 c-2 -2 -13 3 -25 12 -17 12 -22 25 -21 57 l1 42 24 -54 c14 -29 23 -55 21
-57z m-8259 87 c10 -6 0 -19 -36 -50 -27 -22 -53 -41 -56 -41 -3 0 9 22 26 50
34 50 43 56 66 41z m8456 -88 c5 -17 3 -23 -7 -23 -27 0 -40 27 -32 67 l8 38
12 -30 c7 -16 16 -40 19 -52z m-7929 -128 c-35 -104 -74 -239 -88 -300 -21
-95 -25 -105 -30 -75 -18 104 -17 110 49 267 35 83 64 154 64 157 0 9 63 147
65 144 1 -2 -26 -88 -60 -193z m-505 157 c0 -14 -12 -36 -55 -99 -3 -6 -75 21
-73 28 6 14 113 97 121 92 4 -2 7 -12 7 -21z m344 -74 c-7 -74 -12 -89 -49
-148 -122 -189 -224 -482 -251 -722 -4 -32 -9 -58 -12 -58 -19 0 -52 47 -52
74 0 51 37 189 115 431 73 225 77 233 162 368 48 75 89 137 90 137 2 0 0 -37
-3 -82z m7653 26 c15 -57 55 -365 48 -372 -2 -2 -22 10 -45 28 -34 27 -40 37
-40 71 0 29 -4 39 -16 39 -9 0 -18 -9 -21 -20 -3 -11 -8 -20 -12 -20 -37 0
-43 136 -11 224 23 61 57 109 73 103 6 -2 17 -26 24 -53z m-7972 -64 c-21 -47
-27 -49 -45 -16 -11 21 -10 28 10 56 20 29 24 30 38 16 14 -14 14 -19 -3 -56z
m8235 -8 c0 -18 4 -40 9 -50 9 -16 26 -118 52 -315 10 -78 9 -91 -4 -105 -19
-19 -18 -22 -47 101 -11 49 -17 93 -14 99 4 6 2 13 -3 17 -5 3 -21 39 -36 79
-21 56 -27 91 -27 151 0 43 3 80 6 83 3 4 19 -1 35 -10 23 -13 29 -24 29 -50z
m-8155 -10 c-6 -23 -56 -147 -112 -274 -15 -35 -40 -68 -63 -87 -22 -17 -41
-31 -44 -31 -7 0 94 231 148 338 35 70 50 90 62 85 11 -4 14 -13 9 -31z m8369
-64 c24 -129 44 -298 35 -303 -9 -6 -38 63 -79 186 l-32 96 27 27 c20 21 26
34 23 57 -3 16 -2 29 2 29 3 0 14 -42 24 -92z m-354 3 c0 -58 -6 -50 -14 19
-4 38 -3 50 4 40 5 -8 10 -35 10 -59z m445 -176 c1 -27 6 -58 10 -67 4 -11 3
-18 -3 -18 -6 0 -14 17 -17 38 -4 20 -18 83 -31 140 -13 57 -24 107 -23 110 2
26 62 -163 64 -203z m-8895 135 c-6 -11 -18 -20 -26 -20 -12 0 -10 5 7 20 30
25 32 25 19 0z m270 0 c15 0 6 -27 -58 -180 -57 -137 -80 -180 -93 -180 -31 0
-31 19 2 118 47 144 99 254 116 247 8 -3 23 -5 33 -5z m-337 -92 c-5 -7 -24
-32 -42 -55 l-32 -42 -35 16 c-18 9 -34 19 -34 22 0 14 76 56 109 62 20 3 38
7 40 8 2 0 -1 -5 -6 -11z m8587 -44 c0 -13 -4 -24 -10 -24 -5 0 -10 14 -10 31
0 17 4 28 10 24 6 -3 10 -17 10 -31z m-173 -92 l32 -27 -18 -65 c-17 -60 -20
-63 -29 -40 -5 14 -30 69 -56 123 l-45 98 42 -31 c23 -17 56 -43 74 -58z
m-7691 46 c-7 -37 -75 -182 -82 -175 -6 5 76 207 84 207 2 0 2 -14 -2 -32z
m-896 -22 c0 -12 5 -37 11 -55 10 -28 8 -35 -16 -66 l-26 -35 -27 31 c-14 18
-39 37 -55 44 l-29 12 64 46 c34 25 66 46 71 47 4 0 7 -11 7 -24z m8776 -3 c3
-16 7 -34 10 -41 2 -7 -5 -21 -15 -31 -17 -17 -21 -18 -40 -5 -25 18 -26 35
-6 74 19 38 43 38 51 3z m416 -85 c9 -29 14 -54 13 -56 -2 -2 -14 0 -28 3 -44
11 -49 104 -6 105 4 0 13 -24 21 -52z m-8597 -44 c-19 -51 -24 -59 -19 -30 5
36 34 109 41 103 1 -2 -8 -35 -22 -73z m8395 39 c0 -7 -4 -13 -10 -13 -5 0
-10 12 -10 28 0 21 2 24 10 12 5 -8 10 -21 10 -27z m133 -3 c3 -11 1 -18 -4
-14 -5 3 -9 12 -9 20 0 20 7 17 13 -6z m-8198 -104 c5 -61 2 -125 -13 -237
-12 -85 -24 -179 -27 -210 l-6 -57 -44 -11 c-24 -6 -62 -11 -83 -11 l-40 0 40
153 c61 236 143 471 159 461 4 -2 10 -42 14 -88z m7854 20 l22 -34 -26 -26
c-17 -17 -27 -21 -29 -13 -9 26 -26 106 -26 117 0 20 37 -8 59 -44z m289 -41
c48 -76 53 -89 50 -132 l-3 -48 -25 40 c-13 22 -39 56 -57 76 -31 34 -60 119
-48 140 14 21 33 4 83 -76z m-8606 53 c-7 -7 -12 -8 -12 -2 0 14 12 26 19 19
2 -3 -1 -11 -7 -17z m8199 -100 c30 -119 23 -134 -19 -43 -33 68 -37 84 -29
110 20 60 20 61 24 35 3 -14 13 -59 24 -102z m539 92 c12 -6 24 -33 34 -79 9
-39 16 -74 16 -78 0 -14 -86 121 -92 145 -7 24 10 29 42 12z m-8388 -29 c-1
-6 -25 -87 -52 -179 -28 -93 -50 -176 -50 -184 0 -9 -4 -19 -9 -23 -12 -7 -4
88 15 175 19 89 75 232 88 227 6 -3 10 -10 8 -16z m8113 -49 c3 -20 24 -113
46 -205 22 -93 39 -173 37 -179 -5 -15 -64 128 -82 199 -25 99 -47 234 -40
245 10 16 31 -16 39 -60z m-8595 43 c-7 -9 -15 -13 -17 -11 -7 7 7 26 19 26 6
0 6 -6 -2 -15z m8508 -150 c6 -68 5 -88 -5 -92 -17 -7 -17 -22 1 -42 19 -22
31 -117 16 -126 -19 -12 -26 7 -60 167 l-32 149 28 30 c36 37 41 29 52 -86z
m-8524 28 c-20 -68 -25 -74 -20 -25 3 35 19 72 31 72 2 0 -3 -21 -11 -47z
m173 -44 c-13 -59 -14 -62 -21 -33 -5 22 -2 43 10 68 10 19 19 34 21 33 2 -2
-3 -33 -10 -68z m8605 -42 l38 -60 -25 -25 c-14 -14 -28 -36 -31 -48 -8 -33
25 -95 64 -119 l32 -20 -6 -120 c-4 -81 -11 -125 -20 -135 -22 -22 -30 -3 -44
100 -7 52 -23 140 -37 195 -24 99 -53 277 -52 325 l0 25 22 -29 c12 -15 39
-56 59 -89z m-8728 61 c-7 -43 -35 -121 -41 -115 -5 6 35 147 42 147 3 0 2
-15 -1 -32z m8794 -68 l0 -35 -8 30 c-4 17 -8 46 -8 65 l0 35 8 -30 c4 -16 8
-46 8 -65z m-8894 -2 c-7 -88 -18 -115 -39 -98 -18 15 -6 119 18 152 12 16 22
28 25 28 2 0 0 -37 -4 -82z m8946 -18 c25 -50 25 -52 -5 -38 -19 9 -25 19 -25
45 0 18 2 33 5 33 2 0 14 -18 25 -40z m-8751 -40 c1 -20 -8 -85 -18 -145 -22
-122 -57 -490 -67 -687 -6 -118 -8 -128 -29 -142 l-23 -15 -16 89 c-30 163
-30 176 2 330 16 80 32 165 36 190 29 234 40 292 68 369 33 87 46 90 47 11z
m-289 -10 c-3 -33 -10 -64 -15 -68 -6 -5 -62 -26 -125 -47 -63 -20 -148 -53
-189 -72 -41 -18 -73 -32 -71 -29 51 48 189 155 239 185 86 50 155 89 161 90
3 1 3 -26 0 -59z m301 -126 c-5 -21 -9 -30 -10 -19 -1 24 10 67 15 62 3 -2 0
-22 -5 -43z m122 20 c12 -5 17 -17 17 -47 l0 -41 -30 29 c-30 29 -43 83 -17
71 6 -3 20 -9 30 -12z m8163 -138 c13 -44 22 -81 20 -83 -2 -2 -20 16 -40 40
-35 43 -36 47 -35 123 l0 79 16 -40 c8 -22 26 -76 39 -119z m212 71 c19 -44
20 -46 3 -37 -22 11 -31 32 -31 67 0 32 2 30 28 -30z m326 -7 c3 -22 9 -73 13
-114 5 -70 5 -74 -16 -81 -13 -4 -24 -5 -26 -3 -2 2 -13 45 -25 96 l-20 93 27
24 c16 13 31 25 34 25 4 0 9 -18 13 -40z m-425 -59 l-1 -46 -13 55 c-8 30 -14
57 -15 59 0 2 7 -2 15 -9 10 -8 15 -29 14 -59z m352 -53 c24 -106 24 -101 -13
-122 l-31 -19 6 69 c4 38 7 91 7 118 0 27 3 47 6 43 3 -3 14 -43 25 -89z
m-155 -170 c6 -42 4 -48 -19 -63 -14 -9 -41 -37 -61 -62 l-36 -46 0 196 c0
195 0 196 23 199 20 3 26 -7 54 -87 18 -49 35 -111 39 -137z m-8462 132 c28
-42 33 -104 17 -200 l-8 -45 -6 35 c-4 19 -11 71 -17 115 -6 44 -13 92 -16
108 -7 37 -1 34 30 -13z m8159 -53 c31 -45 37 -64 46 -149 6 -53 11 -124 11
-157 0 -34 7 -127 15 -208 l16 -146 -33 -128 c-18 -71 -35 -129 -39 -129 -4 0
-12 15 -18 33 -7 17 -29 61 -50 97 l-37 65 7 90 c4 50 8 198 8 330 1 132 4
270 8 308 7 77 11 77 66 -6z m-8467 -24 c-13 -74 -18 -94 -23 -90 -5 6 18 127
24 127 3 0 2 -17 -1 -37z m9024 -68 c0 -50 -3 -65 -15 -65 -9 0 -16 14 -20 38
-4 20 -9 45 -11 54 -4 15 18 37 39 38 4 0 7 -29 7 -65z m-8546 10 c27 -14 58
-25 69 -25 18 0 19 -9 16 -286 l-4 -286 -30 -24 c-16 -12 -31 -22 -33 -20 -9
9 -52 352 -57 454 -3 64 -8 138 -11 165 -2 26 -3 47 -2 47 2 0 25 -11 52 -25z
m8480 9 c3 -9 6 -26 6 -39 l0 -24 -40 17 c-22 9 -40 20 -40 24 0 7 49 37 61
38 4 0 10 -7 13 -16z m-98 -71 c-3 -8 -6 -27 -7 -41 0 -23 -2 -21 -13 13 -7
22 -11 43 -9 47 7 14 34 -5 29 -19z m73 -13 c63 -32 62 -60 -11 -190 -33 -61
-61 -109 -62 -108 -2 3 10 162 20 266 3 28 8 52 10 52 3 0 22 -9 43 -20z
m-138 -63 c9 -65 -17 -397 -36 -454 -11 -35 -76 -110 -105 -121 -7 -2 -15 297
-11 418 1 37 9 67 26 95 26 46 105 129 113 120 3 -3 9 -29 13 -58z m-8674 -4
c-3 -10 -5 -4 -5 12 0 17 2 24 5 18 2 -7 2 -21 0 -30z m152 -220 c-5 -13 -11
-23 -14 -23 -3 0 -4 62 -4 138 l2 137 12 -115 c6 -63 8 -125 4 -137z m-322
145 c-2 -13 -4 -5 -4 17 -1 22 1 32 4 23 2 -10 2 -28 0 -40z m180 -140 c4 -80
2 -138 -3 -138 -29 1 -32 18 -26 170 6 187 20 172 29 -32z m8720 135 c-3 -10
-5 -4 -5 12 0 17 2 24 5 18 2 -7 2 -21 0 -30z m120 -218 l-14 -60 -34 3 c-19
2 -36 5 -38 7 -1 2 19 45 45 96 l49 92 3 -39 c1 -21 -3 -66 -11 -99z m-8981 4
c9 -46 16 -104 16 -128 -1 -27 4 -51 13 -61 26 -28 53 -142 57 -233 4 -101 -2
-99 -57 18 -58 126 -83 288 -64 416 7 43 14 77 16 76 1 -2 10 -41 19 -88z
m9156 -128 l21 -65 -24 -18 c-13 -10 -46 -37 -73 -60 l-49 -42 7 30 c15 58 35
171 47 268 l12 99 19 -74 c10 -41 28 -103 40 -138z m-8847 -41 c5 -116 4 -153
-8 -185 -17 -45 -18 -44 -44 65 -16 64 -17 88 -8 160 10 85 33 142 46 117 4
-6 10 -77 14 -157z m139 -156 c20 -86 35 -159 32 -161 -2 -3 -17 14 -33 38
-25 37 -29 57 -38 161 -6 65 -8 118 -4 118 3 0 22 -70 43 -156z m-309 64 c-3
-35 -9 -76 -12 -93 -5 -27 -7 -28 -14 -10 -13 34 -11 153 4 158 26 11 29 5 22
-55z m8770 -6 c-6 -26 -134 -354 -141 -362 -7 -7 8 82 17 105 5 11 19 33 31
48 22 28 22 29 4 42 -18 13 -18 17 -2 107 25 138 21 130 61 105 28 -17 34 -27
30 -45z m-439 -222 c-5 -47 -122 -385 -183 -530 -31 -74 -72 -145 -79 -137 -1
1 13 52 31 112 44 145 89 365 115 568 32 237 25 227 77 122 37 -77 43 -97 39
-135z m254 210 c0 -6 -9 -18 -20 -27 -11 -10 -20 -27 -20 -39 0 -12 -7 -37
-15 -55 l-14 -34 -1 47 c0 39 6 54 31 83 33 37 39 41 39 25z m65 -97 c-10 -46
-22 -86 -28 -90 -6 -4 -8 0 -5 9 3 8 14 54 24 102 10 48 20 82 23 75 2 -6 -4
-49 -14 -96z m-219 5 c-11 -105 -27 -173 -37 -157 -5 8 -9 23 -9 34 0 24 41
185 48 185 2 0 2 -28 -2 -62z m666 7 c5 -16 6 -57 2 -90 -7 -75 -48 -270 -65
-310 l-12 -30 -6 30 c-7 34 -36 46 -45 18 -3 -10 -2 -34 4 -53 5 -18 8 -35 6
-37 -2 -2 -39 -12 -82 -23 -44 -10 -88 -22 -99 -26 -18 -7 -18 -6 -6 9 7 9 24
17 36 17 30 0 81 43 89 75 9 35 -18 93 -49 107 -22 10 -26 17 -21 42 3 17 8
68 12 114 6 78 9 85 38 107 41 31 157 86 175 83 8 -2 18 -16 23 -33z m-8672
-32 c0 -44 -5 -41 -14 10 -5 27 -4 37 3 32 6 -3 11 -22 11 -42z m-330 -94
c-12 -16 -24 -29 -26 -29 -7 0 7 142 14 155 3 5 12 -14 19 -43 13 -50 12 -55
-7 -83z m131 -153 c13 -69 17 -112 11 -118 -6 -6 -12 2 -17 24 -3 18 -17 85
-31 148 -21 98 -23 120 -13 145 12 30 12 29 21 -30 5 -33 18 -109 29 -169z
m158 -17 c12 -48 24 -109 28 -135 6 -44 5 -48 -9 -36 -9 7 -32 36 -52 65 -28
41 -39 70 -51 141 -8 49 -15 100 -15 114 0 23 2 22 39 -19 33 -36 43 -59 60
-130z m8151 40 c-17 -58 -24 -69 -35 -59 -12 10 -11 19 7 63 11 29 26 65 32
81 22 56 19 -11 -4 -85z m-8375 -41 c26 -124 30 -194 10 -192 -18 2 -95 151
-101 198 -6 40 -3 49 26 86 18 22 34 40 35 38 2 -2 15 -60 30 -130z m8601 60
c-35 -112 -66 -177 -88 -184 -11 -3 -21 -4 -24 -2 -2 2 12 33 30 69 19 35 42
84 52 109 15 38 41 80 50 80 1 0 -8 -33 -20 -72z m70 -2 c-6 -53 -11 -65 -27
-69 -14 -4 -19 -1 -16 7 3 7 13 40 22 74 10 35 20 60 23 58 2 -3 1 -34 -2 -70z
m-225 4 l-10 -25 0 27 c-1 14 2 35 6 45 7 17 8 17 11 -2 1 -12 -2 -32 -7 -45z
m-291 -172 c-69 -166 -99 -232 -105 -226 -3 2 13 49 34 104 21 54 56 152 77
218 36 110 40 116 48 87 7 -26 -1 -53 -54 -183z m-8420 181 c0 -6 -4 -7 -10
-4 -5 3 -10 11 -10 16 0 6 5 7 10 4 6 -3 10 -11 10 -16z m8585 -209 c-16 -48
-67 -120 -85 -120 -4 0 6 37 24 83 18 45 36 91 40 101 6 18 8 18 23 4 14 -15
14 -21 -2 -68z m-8161 -182 c55 -164 62 -200 50 -245 -6 -22 -7 -22 -45 10
-38 31 -51 69 -29 82 15 9 12 25 -4 25 -19 0 -23 15 -41 155 -11 88 -12 122
-3 132 6 7 12 12 13 11 2 -2 28 -78 59 -170z m8356 159 c0 -7 -108 -255 -123
-282 -13 -24 -16 -26 -17 -10 -1 92 63 279 99 288 20 6 41 8 41 4z m-8280 -91
c0 -17 9 -46 21 -65 11 -18 19 -42 17 -53 -3 -17 -8 -14 -36 21 -24 30 -37 60
-47 112 l-13 71 29 -28 c20 -19 29 -38 29 -58z m8354 66 c28 -21 24 -36 -24
-87 -20 -22 -49 -61 -64 -87 -33 -59 -52 -72 -31 -21 9 21 33 77 52 126 20 48
38 87 41 87 2 0 14 -8 26 -18z m-8692 -24 c-7 -7 -12 -8 -12 -2 0 14 12 26 19
19 2 -3 -1 -11 -7 -17z m-42 -109 c0 -11 -4 -17 -10 -14 -5 3 -10 15 -10 26 0
11 5 17 10 14 6 -3 10 -15 10 -26z m124 -84 c3 -8 2 -15 -3 -15 -5 0 -14 7
-21 15 -10 12 -10 15 3 15 8 0 17 -7 21 -15z m8227 -47 c-17 -29 -31 -47 -31
-40 0 17 51 104 57 98 3 -3 -9 -29 -26 -58z m-8217 -118 c54 -136 64 -170 49
-170 -13 1 -110 222 -118 268 -13 80 12 43 69 -98z m301 80 c5 -17 4 -22 -3
-15 -5 6 -13 21 -17 35 -5 17 -4 22 3 15 5 -5 13 -21 17 -35z m-288 8 c14 -19
76 -198 70 -204 -2 -3 -9 8 -15 23 -5 15 -26 65 -46 111 -31 73 -36 104 -9 70z
m8277 -45 c-9 -26 -23 -53 -31 -59 -7 -6 -13 -19 -13 -29 0 -19 -37 -65 -51
-65 -5 0 -6 8 -2 18 8 25 107 191 112 187 2 -2 -5 -25 -15 -52z m514 42 c2 -2
-4 -37 -13 -77 -17 -68 -22 -77 -77 -128 -92 -84 -204 -165 -300 -215 -47 -25
-90 -45 -96 -45 -5 0 -3 34 5 83 13 74 21 94 92 207 62 98 89 132 127 159 l49
33 104 -6 c57 -3 106 -8 109 -11z m82 -12 c-1 -9 -36 -53 -42 -53 -3 0 -3 14
0 30 3 21 10 30 23 30 11 0 19 -3 19 -7z m-569 -66 c-18 -47 -29 -29 -12 19
10 29 17 39 19 27 2 -11 -2 -31 -7 -46z m93 -64 c-65 -103 -67 -105 -60 -53 5
35 15 52 44 77 20 18 41 32 45 33 4 0 -9 -26 -29 -57z m-8136 14 c17 -46 15
-53 -8 -32 -19 18 -28 65 -12 65 4 0 13 -15 20 -33z m-68 -26 c0 -3 -5 -13
-10 -21 -11 -18 -23 -7 -38 37 l-11 33 30 -22 c16 -12 29 -24 29 -27z m130
-156 c0 -17 4 -35 9 -40 5 -6 18 -52 30 -104 20 -88 20 -95 5 -113 -10 -10
-20 -18 -24 -18 -4 0 -30 50 -59 112 -44 95 -51 116 -42 136 16 35 13 73 -8
109 -31 49 -12 48 41 -4 37 -36 48 -54 48 -78z m7896 6 c-20 -39 -38 -71 -40
-71 -5 0 45 118 58 138 4 7 10 11 13 9 2 -3 -12 -37 -31 -76z m64 2 c0 -10
-14 -34 -30 -53 l-30 -35 28 52 c15 29 28 53 30 53 1 0 2 -8 2 -17z m-129 -60
c-21 -53 -44 -106 -48 -112 -5 -7 -33 21 -33 34 0 11 87 125 96 125 2 0 -5
-21 -15 -47z m109 -84 c-16 -93 -37 -153 -86 -249 -44 -84 -71 -124 -253 -370
-51 -69 -134 -185 -184 -259 -116 -169 -258 -363 -263 -358 -9 9 165 307 258
442 123 178 277 435 360 599 51 102 165 272 176 261 2 -1 -2 -32 -8 -66z
m-8142 21 c6 -16 9 -30 7 -30 -5 0 -35 56 -35 65 0 15 19 -8 28 -35z m416
-107 c37 -69 65 -131 63 -137 -4 -13 -74 90 -111 161 -22 45 -35 103 -22 103
3 0 34 -57 70 -127z m24 74 c43 -44 72 -112 72 -166 -1 -25 -1 -25 -16 -6 -25
34 -115 215 -107 215 5 0 28 -20 51 -43z m-464 -112 c20 -38 30 -61 21 -50
-18 21 -65 110 -65 121 0 11 3 6 44 -71z m7934 -57 c-16 -32 -23 -38 -26 -25
-3 15 32 67 45 67 2 0 -7 -19 -19 -42z m-7763 -8 c13 -27 14 -32 2 -20 -8 8
-18 26 -22 40 -9 32 -2 25 20 -20z m357 -180 c106 -163 287 -390 417 -524 l86
-89 -70 48 c-248 172 -381 288 -418 365 -41 85 -136 343 -130 353 7 12 7 11
115 -153z m-228 -44 c59 -93 58 -95 -20 -29 -40 34 -56 57 -77 111 -15 37 -27
72 -27 77 1 17 67 -68 124 -159z m45 114 c5 -16 8 -30 6 -30 -3 0 -11 14 -20
30 -9 17 -11 30 -6 30 5 0 14 -13 20 -30z m7091 -49 c0 -24 -5 -29 -30 -33
-36 -5 -36 -4 -7 32 28 37 37 37 37 1z m369 -78 c-53 -98 -109 -193 -114 -193
-10 0 98 227 117 248 40 42 39 22 -3 -55z m-82 -5 c-9 -13 -30 -39 -47 -58
l-31 -35 6 40 c9 51 10 53 48 69 39 16 44 13 24 -16z m-7382 -90 c85 -74 187
-204 279 -357 36 -59 -151 130 -230 234 -58 76 -134 185 -128 185 3 0 39 -28
79 -62z m7253 -185 c-50 -104 -109 -214 -131 -245 -42 -61 -64 -81 -28 -25 35
52 105 195 146 297 21 52 52 110 69 128 16 17 31 32 32 32 1 0 -38 -84 -88
-187z m-218 162 c-7 -8 -18 -15 -24 -15 -6 0 -2 7 8 15 25 19 32 19 16 0z
m-6498 -180 c41 -49 139 -152 219 -228 103 -98 135 -134 114 -127 -55 20 -282
257 -474 495 -9 10 3 4 25 -15 23 -19 75 -75 116 -125z m6618 56 c0 -5 -9 -19
-20 -32 l-21 -24 16 33 c15 31 25 41 25 23z m-160 -91 c-58 -115 -225 -365
-290 -435 -37 -38 -113 -124 -170 -190 -174 -200 -244 -264 -340 -312 -80 -40
-314 -133 -333 -133 -18 0 35 60 72 82 149 88 387 284 589 482 149 146 359
389 440 508 27 39 39 51 60 57 1 1 -11 -26 -28 -59z m-530 24 c0 -38 36 -96
76 -123 18 -13 34 -26 34 -30 0 -3 -18 -31 -40 -61 -22 -30 -89 -127 -149
-215 -152 -222 -277 -362 -382 -429 l-26 -16 5 73 c5 84 -13 137 -66 198 l-30
34 70 110 c38 61 92 152 119 203 40 72 64 104 110 142 76 63 135 98 207 121
74 23 72 23 72 -7z m-5480 -278 c69 -49 134 -97 145 -107 19 -19 19 -19 0 -19
-61 1 -157 29 -192 55 -52 39 -343 316 -354 337 -9 16 128 -75 401 -266z
m-635 234 c10 -11 16 -20 13 -20 -3 0 -13 9 -23 20 -10 11 -16 20 -13 20 3 0
13 -9 23 -20z m250 -215 c28 -26 40 -41 29 -34 -30 19 -214 181 -239 210 -24
28 140 -109 210 -176z m-378 71 c100 -116 364 -374 466 -454 37 -30 67 -55 67
-58 0 -8 -108 60 -180 114 -114 85 -336 312 -408 419 -35 51 -56 90 -48 87 9
-3 55 -52 103 -108z m6823 45 c-14 -49 -80 -137 -80 -107 0 7 82 136 85 136 2
0 0 -13 -5 -29z m-6883 -91 c70 -98 283 -310 393 -392 73 -54 329 -205 396
-233 28 -11 35 -22 52 -77 29 -94 60 -338 43 -338 -27 1 -51 15 -51 31 0 23
-8 24 -31 3 -15 -13 -26 -14 -71 -5 -29 6 -77 25 -106 42 -50 28 -262 223
-262 240 0 5 12 4 26 -1 30 -12 46 -5 42 18 -2 11 -33 27 -92 47 -85 29 -93
35 -226 155 -152 137 -149 133 -176 280 -15 82 -19 340 -6 325 5 -6 36 -48 69
-95z m6531 18 c-69 -89 -368 -402 -376 -393 -3 3 4 15 15 28 11 12 60 81 108
152 196 287 186 275 219 276 17 1 42 5 56 9 14 4 29 8 33 9 5 1 -20 -36 -55
-81z m56 -10 c-97 -119 -331 -355 -459 -462 -140 -117 -165 -130 -56 -29 85
78 329 321 490 486 47 48 86 87 88 87 2 0 -27 -37 -63 -82z m182 -95 c-14 -21
-36 -49 -47 -63 l-21 -25 18 30 c38 65 67 105 72 100 3 -2 -7 -22 -22 -42z
m55 -170 c-68 -134 -320 -398 -501 -526 -124 -87 -204 -139 -185 -120 6 5 80
68 165 140 141 119 378 357 489 491 24 28 46 52 48 52 2 0 -5 -17 -16 -37z
m-14 -131 c-13 -20 -86 -100 -161 -177 l-137 -140 123 136 c68 75 139 159 158
187 19 28 37 46 38 41 2 -6 -7 -27 -21 -47z m-5615 -60 c68 -43 142 -89 165
-102 24 -13 41 -26 38 -28 -5 -5 -153 73 -285 151 -76 46 -90 57 -68 57 18 0
73 -29 150 -78z m4541 50 c50 -53 68 -139 46 -226 -9 -35 -18 -47 -47 -62 -21
-11 -41 -24 -47 -30 -14 -16 -147 -95 -230 -137 -87 -43 -260 -117 -276 -117
-6 0 46 57 116 127 136 136 252 269 343 396 31 42 59 77 62 77 4 0 18 -12 33
-28z m-4447 -10 c161 -128 243 -196 240 -200 -8 -7 -189 93 -300 165 l-101 65
70 -7 c42 -4 79 -13 91 -23z m5059 -241 c-171 -164 -356 -317 -455 -376 -13
-8 -13 -7 0 11 93 122 173 191 355 311 115 76 132 85 100 54z m90 -126 c-107
-87 -309 -215 -321 -203 -2 3 24 22 58 43 35 22 112 74 173 117 60 42 111 75
114 72 3 -3 -8 -16 -24 -29z m-745 20 c0 -3 -28 -25 -61 -50 -99 -73 -225
-137 -308 -156 -42 -10 -77 -17 -78 -15 -1 1 55 28 125 59 70 31 168 81 217
111 87 53 105 62 105 51z m-3927 -101 c58 -16 144 -59 255 -127 92 -56 104
-67 70 -67 -65 0 -183 50 -304 131 -68 45 -124 84 -124 86 0 4 36 -4 103 -23z
m572 -100 c28 -8 122 -31 210 -49 l160 -33 -49 -21 c-38 -17 -52 -19 -63 -9
-11 9 -16 9 -23 -1 -10 -16 -63 0 -224 67 -85 35 -105 47 -90 53 26 10 23 11
79 -7z m3400 7 c-15 -14 -278 -151 -282 -147 -2 2 8 11 21 20 14 9 42 31 62
49 40 34 232 110 199 78z m135 -51 c-29 -34 -69 -68 -89 -76 -40 -17 -209 -74
-219 -74 -4 0 47 31 113 68 66 37 145 84 175 104 30 20 59 37 63 37 5 1 -15
-26 -43 -59z m-380 -15 c0 -2 -19 -17 -42 -33 -56 -37 -138 -85 -138 -80 0 8
121 99 143 108 25 10 37 12 37 5z m-3051 -70 c46 -18 79 -35 73 -39 -11 -7
-84 19 -162 59 -54 27 -67 42 -22 23 15 -6 65 -25 111 -43z m2891 30 c0 -7
-106 -85 -116 -85 -5 0 -9 12 -9 28 1 23 8 29 51 44 50 17 74 22 74 13z
m-2514 -43 c-11 -11 -134 -29 -151 -22 -17 7 -14 11 25 27 70 31 73 31 102 15
15 -9 26 -18 24 -20z m234 14 c225 -23 458 -31 1070 -36 l155 -2 -135 -33
c-173 -44 -378 -73 -594 -85 -94 -6 -206 -15 -250 -21 -117 -16 -146 -7 -224
63 -80 72 -109 88 -177 95 -46 5 -52 8 -47 25 3 15 11 18 31 14 14 -3 91 -12
171 -20z m-875 4 c3 -5 2 -10 -4 -10 -5 0 -13 5 -16 10 -3 6 -2 10 4 10 5 0
13 -4 16 -10z m2885 -14 c0 -2 -9 -6 -20 -9 -11 -3 -18 -1 -14 4 5 9 34 13 34
5z m101 -59 c-6 -16 -36 -41 -82 -68 -59 -35 -89 -46 -173 -60 -55 -10 -102
-16 -104 -15 -1 2 23 25 53 51 44 37 83 57 183 95 131 49 142 48 123 -3z
m-269 14 c-38 -33 -85 -46 -309 -87 -133 -24 -156 -26 -178 -14 -14 7 -25 16
-25 19 0 13 89 52 155 67 66 15 277 40 355 42 l35 1 -33 -28z m-2689 -25 c29
-13 87 -60 87 -71 0 -11 -19 -2 -85 40 -67 43 -69 60 -2 31z m-55 -98 c35 -16
62 -32 59 -34 -2 -2 -46 11 -98 30 -145 53 -151 55 -144 66 7 11 84 -15 183
-62z m-1 -42 c98 -34 192 -70 209 -79 30 -15 93 -97 75 -97 -27 0 -478 219
-480 233 -2 13 16 8 196 -57z m2008 45 c-16 -15 -40 -21 -110 -25 l-90 -6 90
24 c50 13 99 24 110 25 19 1 19 1 0 -18z m579 -15 c-34 -29 -52 -36 -135 -50
-53 -9 -103 -18 -112 -21 -12 -5 -35 22 -25 30 3 2 288 72 302 74 5 0 -8 -14
-30 -33z m886 19 c-7 -8 -17 -15 -23 -15 -6 0 -2 7 9 15 25 19 30 19 14 0z
m-252 0 c-2 -3 -79 -36 -170 -74 -196 -81 -309 -117 -331 -105 -12 7 40 29
180 79 108 39 217 78 242 87 44 16 90 24 79 13z m37 -60 c-94 -51 -320 -135
-361 -135 -18 1 100 54 231 105 33 13 89 37 125 54 108 50 112 34 5 -24z m145
20 c0 -6 -56 -35 -67 -35 -9 0 48 38 60 39 4 1 7 -1 7 -4z m-3060 -260 c102
-43 214 -87 250 -98 51 -17 59 -22 39 -25 -72 -9 -419 92 -527 154 -153 87
-302 189 -302 206 0 16 30 3 178 -71 97 -49 260 -124 362 -166z m1215 185
c122 -1 146 -3 130 -13 -14 -8 -65 -12 -158 -11 -118 1 -141 4 -155 19 -16 17
-15 17 8 11 14 -3 93 -6 175 -6z m401 -6 c-3 -9 -6 -22 -6 -30 0 -11 -19 -14
-92 -14 -105 0 -106 9 -3 38 89 26 109 27 101 6z m484 -4 c-14 -4 -36 -8 -50
-8 -23 -1 -23 0 -5 8 11 5 34 8 50 8 29 0 29 0 5 -8z m737 -61 c-17 -44 -110
-82 -163 -68 -20 6 -34 12 -32 14 8 9 184 85 196 85 10 0 10 -6 -1 -31z m-788
-32 c-61 -41 -61 -41 -57 -16 3 23 28 36 72 38 13 1 9 -5 -15 -22z m-804 3 c4
-6 -9 -10 -32 -9 -30 0 -34 2 -18 9 27 12 43 12 50 0z m125 -10 c-20 -5 -39
-5 -44 1 -6 5 7 9 35 8 l44 -1 -35 -8z m234 -46 c3 -9 6 -27 6 -40 0 -23 -3
-24 -57 -24 -48 0 -66 6 -102 30 -49 34 -45 38 44 43 33 2 70 4 81 5 12 1 25
-5 28 -14z m546 -14 c-8 -5 -26 -9 -40 -9 -23 1 -23 2 5 9 43 11 52 11 35 0z
m538 -16 c80 -21 176 -84 180 -118 3 -23 0 -26 -25 -26 -40 0 -85 -31 -108
-73 -16 -30 -25 -37 -48 -37 l-29 0 22 18 c13 11 20 24 16 30 -12 21 -43 13
-76 -18 -30 -28 -37 -30 -79 -25 -96 12 -93 11 -75 47 9 18 19 62 21 98 2 36
6 75 9 88 9 44 66 49 192 16z m-548 -34 c0 -12 -10 -25 -22 -30 -27 -11 -181
-50 -199 -50 -18 0 111 84 141 91 54 14 80 10 80 -11z m-587 -27 c-7 -2 -19
-2 -25 0 -7 3 -2 5 12 5 14 0 19 -2 13 -5z m58 -81 c-17 -3 -30 4 -43 20 -24
32 -23 36 15 46 31 8 32 7 42 -27 10 -34 9 -36 -14 -39z m519 -12 c0 -37 -2
-40 -27 -39 -16 0 -37 4 -48 8 -19 8 -19 8 3 15 12 4 22 15 22 25 0 23 9 31
32 31 14 0 18 -8 18 -40z m-160 -5 c-14 -16 -50 -21 -50 -6 0 5 12 12 28 14
15 2 29 5 31 6 2 0 -2 -6 -9 -14z m25 -66 c33 -5 77 -9 98 -9 27 0 39 -5 43
-17 4 -10 19 -47 35 -82 16 -35 29 -65 29 -66 0 -2 -35 7 -77 20 -43 13 -116
35 -162 48 -62 18 -85 29 -87 42 -1 10 -14 30 -28 44 -15 15 -23 30 -19 34 7
7 55 3 168 -14z m-311 -15 c5 -13 2 -15 -16 -10 -13 3 -27 6 -33 6 -14 0 17
20 31 20 7 0 15 -7 18 -16z m136 -45 c0 -3 -11 -4 -25 -1 -25 4 -31 13 -19 25
7 6 44 -14 44 -24z m760 -10 c116 -11 121 -13 116 -33 -13 -47 -18 -173 -8
-209 10 -35 9 -38 -6 -32 -26 11 -248 90 -323 116 l-67 23 72 78 c39 43 76 76
82 73 7 -2 67 -9 134 -16z"/>
<path d="M6223 8998 c-57 -62 -77 -124 -48 -148 13 -11 12 -19 -12 -61 l-26
-49 -28 26 c-16 15 -25 33 -22 43 5 20 -10 34 -52 49 -16 5 -39 14 -50 18 -18
7 -18 6 -6 -9 12 -15 11 -17 -10 -17 -22 -1 -23 -2 -6 -14 17 -13 17 -14 0
-20 -27 -11 62 -48 93 -40 29 7 64 -19 64 -48 0 -32 -176 -199 -269 -256 -46
-28 -89 -53 -95 -55 -6 -2 -8 -7 -5 -11 8 -9 123 60 201 121 31 24 83 73 115
108 63 72 112 97 125 63 12 -29 36 -33 92 -14 28 10 58 20 66 23 11 3 9 8 -9
17 l-24 13 27 7 c33 8 34 26 1 26 -19 0 -23 4 -18 17 5 11 3 14 -6 8 -7 -4
-36 -10 -64 -14 -41 -5 -54 -11 -64 -31 -7 -14 -24 -28 -37 -31 l-26 -7 32 57
c24 43 40 60 63 67 31 9 66 64 81 129 7 28 6 29 -11 15 -17 -14 -18 -13 -13
13 6 31 2 33 -24 10 -18 -16 -18 -16 -12 0 8 23 1 21 -23 -5z"/>
</g>
</svg>
